<svg xmlns="http://www.w3.org/2000/svg" width="64" height="64" fill="none"><g clip-path="url(#a)"><path fill="#2E2F42" d="M63 31a31 31 0 1 0-40 29h1v-1l8-25a4 4 0 1 0-2-7L20 17a1 1 0 0 0-2 2l11 10c-1 2-1 3 1 5l-8 23a28 28 0 1 1 21-1v-4a1 1 0 0 0-3 0l-7 7a1 1 0 0 0 0 2l10 3a1 1 0 0 0 2-2l-1-3c11-5 19-16 19-28Zm-31-2a1 1 0 1 1 0 3 1 1 0 0 1 0-3Zm4 30 5-4 1 6-6-2Z"/><path fill="#4D5AE5" d="M31 6v3a1 1 0 1 0 2 0V6a1 1 0 0 0-2 0ZM8 29a1 1 0 0 0 0 3h2a1 1 0 1 0 0-3H8ZM56 32a1 1 0 1 0 0-3h-2a1 1 0 0 0 0 3h2Z"/></g><defs><clipPath id="a"><path fill="#fff" d="M0 0h64v64H0z"/></clipPath></defs></svg>