<svg xmlns="http://www.w3.org/2000/svg" width="64" height="64" fill="none"><g clip-path="url(#a)"><path fill="#4D5AE5" d="M30 30h2v10h-2V30ZM38 34h3v6h-3v-6ZM21 37h2v3h-2v-3ZM15 36h2v4h-2v-4Z"/><path fill="#2E2F42" d="M3 57h51c2 0 4-2 4-4v-4c0-2-2-3-4-3h-1V19l6-5a3 3 0 1 0-1-2l-5 4v-2c0-2-1-3-3-3H7c-1 0-3 1-3 3v32H3c-2 0-3 1-3 3v4c0 2 1 4 3 4Zm58-47a1 1 0 1 1 0 2 1 1 0 0 1 0-2ZM6 14l1-1h43l1 1v4l-2 2v-4l-1-1H10l-1 1v27l1 1h38l1-1V23l2-2v25H6V14Zm10 14a3 3 0 1 0 2 5l4 2h1l8-9 8 6h1l7-7v17H11V17h36v5l-8 8-7-6h-2l-8 9-3-2c0-2-1-3-3-3Zm1 3a1 1 0 1 1-2 0 1 1 0 0 1 2 0Zm6 17h11v1l-1 1h-8l-2-1v-1ZM2 49l1-1h18v1c0 2 2 3 4 3h8c2 0 3-1 3-3v-1h18l1 1v4l-1 1H3l-1-1v-4Z"/></g><defs><clipPath id="a"><path fill="#fff" d="M0 0h64v64H0z"/></clipPath></defs></svg>