<svg xmlns="http://www.w3.org/2000/svg" width="16" height="16" fill="none"><g fill="#F4F4FD" clip-path="url(#a)"><path d="M16 5V3l-1-2-2-1h-2a55 55 0 0 0-8 0L1 1 0 3v2a55 55 0 0 0 0 8l1 2 2 1h2a59 59 0 0 0 8 0l3-3v-2a59 59 0 0 0 0-6Zm-1 6-1 2-1 1-2 1a56 56 0 0 1-8-1H2v-3a56 56 0 0 1 0-8V2h3a56 56 0 0 1 8 0h1v1l1 2a56 56 0 0 1 0 6Z"/><path d="M8 4a4 4 0 1 0 0 8 4 4 0 0 0 0-8Zm0 7a3 3 0 1 1 0-6 3 3 0 0 1 0 6ZM13 4a1 1 0 1 1-2 0 1 1 0 0 1 2 0Z"/></g><defs><clipPath id="a"><path fill="#fff" d="M0 0h16v16H0z"/></clipPath></defs></svg>