<svg xmlns="http://www.w3.org/2000/svg" width="64" height="64" fill="none"><path fill="#2E2F42" d="M62 44 45 27l2-9h1a4 4 0 1 0-4-3l-10 2L18 0h-2l-3 3v2l2 1a30 30 0 0 0 5 36v13H7c-2 0-5 3-5 6v2l1 1h49l1-1v-2c0-3-2-6-5-6H35v-5a30 30 0 0 0 20-3l2 2h2l3-3v-2ZM47 12a2 2 0 1 1 1 4 2 2 0 0 1-1-4Zm-3 7-1 6-2-2 3-4Zm-1-1-4 3-3-2 7-1Zm5 40c2 0 3 1 3 3v1H4v-1c0-2 2-3 3-3h41Zm-15-5v2H22v-2h11Zm-11-2v-8c0-2 3-5 6-5s5 3 5 5v8H22Zm13-3v-5c0-4-3-7-7-7-3 0-5 2-7 4-8-9-10-21-4-32l37 37c-6 3-13 4-19 3Zm23-2-2-1L17 6l-1-2 1-1 16 16 26 26-1 1Z"/><path fill="#4D5AE5" d="M28 41a3 3 0 0 0 0 6 3 3 0 0 0 0-6Zm0 3a1 1 0 1 1 0-1 1 1 0 0 1 0 1Z"/></svg>