<svg xmlns="http://www.w3.org/2000/svg" width="64" height="64" fill="none"><path fill="#4D5AE5" d="m64 9-1-1h-4l-1-4h-2l-2 4h-4a1 1 0 0 0 0 2l2 3v4a1 1 0 0 0 1 1l4-2 3 2a1 1 0 0 0 2-1l-1-4 3-3V9Zm-5 3v3l-2-1a1 1 0 0 0-1 0l-2 1v-3l-1-2h2l1-1 1-2 1 2v1h3l-2 2ZM52 41h-2v2h2v-2ZM52 45h-2v2h2v-2ZM54 43h-2v2h2v-2ZM50 43h-2v2h2v-2ZM45 53h-2v2h2v-2ZM45 57h-2v2h2v-2ZM47 55h-2v2h2v-2ZM43 55h-2v2h2v-2ZM32 49h-2v2h2v-2ZM32 53h-2v2h2v-2ZM34 51h-2v2h2v-2ZM30 51h-2v2h2v-2ZM12 12h-2v2h2v-2ZM12 17h-2v2h2v-2ZM14 14h-2v3h2v-3ZM10 14H7v3h3v-3Z"/><path fill="#2E2F42" d="m49 28-2-1-3 1-2 2-4 2-3-1a14 14 0 0 0-5-26 14 14 0 0 0-12 21h-6l-6 3-4 2a4 4 0 0 0 3 6l3-1 5-2h2L4 44l-2 3a3 3 0 0 0 0 5 3 3 0 0 0 4 0l3-3 4-2 1 1-3 4-3 3a3 3 0 0 0 0 4 3 3 0 0 0 5 0l3-2 4-5 2-2 10-11 7 1a1 1 0 0 0 1 0l6-4v-1l3-2c1-1 2-3 0-5ZM4 36H3a1 1 0 0 1 0-3l2-1 1 2-2 2Zm7-4-3 1v-1l-1-1 4-2v3Zm30-13-1 5-8-4-2-3 3-10c5 2 8 6 8 12Zm-23 0A12 12 0 0 1 31 7l-3 10c-2 0-4 1-4 3a4 4 0 0 0 7 2l8 4a12 12 0 0 1-21-7Zm12 1-2 2-1-2 1-1 2 1ZM5 50H3a1 1 0 0 1 0-1l2-2 2 1-2 2Zm6 8h-1a1 1 0 0 1 0-2l2-2v1l1 1-2 2Zm7-7-3 3h-1l-1-1 4-4v-1l-4-4h-1l-4 3-1-2 4-5 9 9-2 2Zm14-14a1 1 0 0 0-1 0l-9 10-9-8 6-6a1 1 0 0 0-1-2h-5v-3h7a14 14 0 0 0 12 4l5 2 1 2v2l-6-1Zm8 0-1-3 3-2 1 1 1 1-4 3Zm8-6-2 2-2-2 2-2h1a1 1 0 0 1 1 2Z"/><path fill="#2E2F42" d="m27 37-4-4h-2l-4 4a1 1 0 0 0 0 2l4 4a1 1 0 0 0 2 0l4-4a1 1 0 0 0 0-2Zm-5 4-3-3 3-3 3 3-3 3ZM34 10v2s3 1 3 5h2c0-5-3-6-5-7ZM39 19h-2v2h2v-2Z"/></svg>